# xmcd
#
# Track frame offsets:
#	150
#	12430
#	24740
#	37740
#	54828
#	65958
#	78170
#	87650
#
# Disc length: 1337 seconds
#
# Revision: 2
# Processed by: cddbd v1.5.2PL0 Copyright (c) Steve Scherf et al.
# Submitted via: EZCDAudioConverter 3.1.5.1
#
DISCID=5e053708
DTITLE=Δημήτρης Μητροπάνος - 8 Μεγάλες Επιτυχίες
DYEAR=2006
DGENRE=laika
TTITLE0=Κλαίει Απόψε η Γειτονιά
TTITLE1=Κάτω απο το Πουκάμισό μου
TTITLE2=Απόψε σε Θέλω Πολύ
TTITLE3=Παράπονο μου
TTITLE4=Τι το θές το Κουταλάκι
TTITLE5=Θα 'ρθω Μεσάνυχτα
TTITLE6=Νικολή-Νικολή
TTITLE7=Ότι πιάνω εγώ στα χέρια
EXTD=
EXTT0=
EXTT1=
EXTT2=
EXTT3=
EXTT4=
EXTT5=
EXTT6=
EXTT7=
PLAYORDER=
